<svg xmlns="http://www.w3.org/2000/svg" width="334" height="92" viewBox="0 0 334 92" fill="none"><path opacity="0.1" d="M50.418 18.2825L71.4044 10.0735V90.665H50.418V18.2825Z" fill="#D7926B"></path><path d="M5.13281 9.47238V89.3714" stroke="#D7926B" stroke-width="1.5"></path><path d="M1 58.3145L94.8045 33.8927" stroke="#D7926B" stroke-width="1.5"></path><path d="M10.0234 89.5753V17.674L49.7027 2.90591V89.5753H22.1057V58.249L86.9959 41.9892V89.5753H59.9956" stroke="#D7926B" stroke-width="3"></path><path d="M50.5977 18.9547L77.7641 26.4229V43.957" stroke="#D7926B" stroke-width="2.1961"></path><rect x="61.1094" y="56.5818" width="3.81084" height="3.81084" fill="#606060"></rect><rect x="61.1094" y="62.6278" width="3.81084" height="3.81084" fill="#606060"></rect><rect x="67.4492" y="56.5818" width="3.81084" height="3.81084" fill="#606060"></rect><rect x="67.4492" y="62.6278" width="3.81084" height="3.81084" fill="#606060"></rect><rect x="24.4648" y="29.4998" width="3.81084" height="3.81084" fill="#606060"></rect><rect x="24.4648" y="35.5458" width="3.81084" height="3.81084" fill="#606060"></rect><rect x="30.8047" y="29.4998" width="3.81084" height="3.81084" fill="#606060"></rect><rect x="30.8047" y="35.5458" width="3.81084" height="3.81084" fill="#606060"></rect><path d="M103.316 85.4335L106.412 77.0335H107.804L110.876 85.4335H109.532L108.812 83.3815H105.38L104.66 85.4335H103.316ZM105.74 82.3735H108.452L107.096 78.5455L105.74 82.3735ZM113.559 85.4335V79.4815H114.699L114.807 80.6095C115.015 80.2175 115.303 79.9095 115.671 79.6855C116.047 79.4535 116.499 79.3375 117.027 79.3375V80.6695H116.679C116.327 80.6695 116.011 80.7295 115.731 80.8495C115.459 80.9615 115.239 81.1575 115.071 81.4375C114.911 81.7095 114.831 82.0895 114.831 82.5775V85.4335H113.559ZM122.334 85.5775C121.75 85.5775 121.226 85.4455 120.762 85.1815C120.306 84.9175 119.946 84.5535 119.682 84.0895C119.426 83.6175 119.298 83.0735 119.298 82.4575C119.298 81.8415 119.426 81.3015 119.682 80.8375C119.946 80.3655 120.306 79.9975 120.762 79.7335C121.226 79.4695 121.75 79.3375 122.334 79.3375C123.07 79.3375 123.686 79.5295 124.182 79.9135C124.686 80.2975 125.01 80.8175 125.154 81.4735H123.822C123.742 81.1455 123.566 80.8895 123.294 80.7055C123.022 80.5215 122.702 80.4295 122.334 80.4295C122.022 80.4295 121.734 80.5095 121.47 80.6695C121.206 80.8215 120.994 81.0495 120.834 81.3535C120.674 81.6495 120.594 82.0175 120.594 82.4575C120.594 82.8975 120.674 83.2695 120.834 83.5735C120.994 83.8695 121.206 84.0975 121.47 84.2575C121.734 84.4175 122.022 84.4975 122.334 84.4975C122.702 84.4975 123.022 84.4055 123.294 84.2215C123.566 84.0375 123.742 83.7775 123.822 83.4415H125.154C125.018 84.0815 124.698 84.5975 124.194 84.9895C123.69 85.3815 123.07 85.5775 122.334 85.5775ZM128.093 85.4335V76.7935H129.365V80.4415C129.565 80.0975 129.841 79.8295 130.193 79.6375C130.553 79.4375 130.949 79.3375 131.381 79.3375C132.093 79.3375 132.653 79.5615 133.061 80.0095C133.469 80.4575 133.673 81.1255 133.673 82.0135V85.4335H132.413V82.1455C132.413 80.9935 131.953 80.4175 131.033 80.4175C130.553 80.4175 130.153 80.5855 129.833 80.9215C129.521 81.2575 129.365 81.7375 129.365 82.3615V85.4335H128.093ZM137.451 78.3535C137.211 78.3535 137.011 78.2815 136.851 78.1375C136.699 77.9855 136.623 77.7975 136.623 77.5735C136.623 77.3495 136.699 77.1655 136.851 77.0215C137.011 76.8695 137.211 76.7935 137.451 76.7935C137.691 76.7935 137.887 76.8695 138.039 77.0215C138.199 77.1655 138.279 77.3495 138.279 77.5735C138.279 77.7975 138.199 77.9855 138.039 78.1375C137.887 78.2815 137.691 78.3535 137.451 78.3535ZM136.815 85.4335V79.4815H138.087V85.4335H136.815ZM143.823 85.4335C143.239 85.4335 142.775 85.2935 142.431 85.0135C142.087 84.7255 141.915 84.2175 141.915 83.4895V80.5495H140.895V79.4815H141.915L142.071 77.9695H143.187V79.4815H144.867V80.5495H143.187V83.4895C143.187 83.8175 143.255 84.0455 143.391 84.1735C143.535 84.2935 143.779 84.3535 144.123 84.3535H144.807V85.4335H143.823ZM150.37 85.5775C149.786 85.5775 149.266 85.4495 148.81 85.1935C148.362 84.9295 148.01 84.5655 147.754 84.1015C147.498 83.6375 147.37 83.0975 147.37 82.4815C147.37 81.8575 147.494 81.3095 147.742 80.8375C147.998 80.3655 148.35 79.9975 148.798 79.7335C149.254 79.4695 149.782 79.3375 150.382 79.3375C150.966 79.3375 151.474 79.4695 151.906 79.7335C152.338 79.9895 152.674 80.3335 152.914 80.7655C153.154 81.1975 153.274 81.6735 153.274 82.1935C153.274 82.2735 153.27 82.3615 153.262 82.4575C153.262 82.5455 153.258 82.6455 153.25 82.7575H148.618C148.658 83.3335 148.846 83.7735 149.182 84.0775C149.526 84.3735 149.922 84.5215 150.37 84.5215C150.73 84.5215 151.03 84.4415 151.27 84.2815C151.518 84.1135 151.702 83.8895 151.822 83.6095H153.094C152.934 84.1695 152.614 84.6375 152.134 85.0135C151.662 85.3895 151.074 85.5775 150.37 85.5775ZM150.37 80.3815C149.946 80.3815 149.57 80.5095 149.242 80.7655C148.914 81.0135 148.714 81.3895 148.642 81.8935H152.002C151.978 81.4295 151.814 81.0615 151.51 80.7895C151.206 80.5175 150.826 80.3815 150.37 80.3815ZM158.974 85.5775C158.39 85.5775 157.866 85.4455 157.402 85.1815C156.946 84.9175 156.586 84.5535 156.322 84.0895C156.066 83.6175 155.938 83.0735 155.938 82.4575C155.938 81.8415 156.066 81.3015 156.322 80.8375C156.586 80.3655 156.946 79.9975 157.402 79.7335C157.866 79.4695 158.39 79.3375 158.974 79.3375C159.71 79.3375 160.326 79.5295 160.822 79.9135C161.326 80.2975 161.65 80.8175 161.794 81.4735H160.462C160.382 81.1455 160.206 80.8895 159.934 80.7055C159.662 80.5215 159.342 80.4295 158.974 80.4295C158.662 80.4295 158.374 80.5095 158.11 80.6695C157.846 80.8215 157.634 81.0495 157.474 81.3535C157.314 81.6495 157.234 82.0175 157.234 82.4575C157.234 82.8975 157.314 83.2695 157.474 83.5735C157.634 83.8695 157.846 84.0975 158.11 84.2575C158.374 84.4175 158.662 84.4975 158.974 84.4975C159.342 84.4975 159.662 84.4055 159.934 84.2215C160.206 84.0375 160.382 83.7775 160.462 83.4415H161.794C161.658 84.0815 161.338 84.5975 160.834 84.9895C160.33 85.3815 159.71 85.5775 158.974 85.5775ZM167.112 85.4335C166.528 85.4335 166.064 85.2935 165.72 85.0135C165.376 84.7255 165.204 84.2175 165.204 83.4895V80.5495H164.184V79.4815H165.204L165.36 77.9695H166.476V79.4815H168.156V80.5495H166.476V83.4895C166.476 83.8175 166.544 84.0455 166.68 84.1735C166.824 84.2935 167.068 84.3535 167.412 84.3535H168.096V85.4335H167.112ZM173.224 85.5775C172.504 85.5775 171.936 85.3535 171.52 84.9055C171.112 84.4575 170.908 83.7895 170.908 82.9015V79.4815H172.18V82.7695C172.18 83.9215 172.652 84.4975 173.596 84.4975C174.068 84.4975 174.456 84.3295 174.76 83.9935C175.064 83.6575 175.216 83.1775 175.216 82.5535V79.4815H176.488V85.4335H175.36L175.264 84.3895C175.08 84.7575 174.808 85.0495 174.448 85.2655C174.096 85.4735 173.688 85.5775 173.224 85.5775ZM179.666 85.4335V79.4815H180.806L180.914 80.6095C181.122 80.2175 181.41 79.9095 181.778 79.6855C182.154 79.4535 182.606 79.3375 183.134 79.3375V80.6695H182.786C182.434 80.6695 182.118 80.7295 181.838 80.8495C181.566 80.9615 181.346 81.1575 181.178 81.4375C181.018 81.7095 180.938 82.0895 180.938 82.5775V85.4335H179.666ZM188.404 85.5775C187.82 85.5775 187.3 85.4495 186.844 85.1935C186.396 84.9295 186.044 84.5655 185.788 84.1015C185.532 83.6375 185.404 83.0975 185.404 82.4815C185.404 81.8575 185.528 81.3095 185.776 80.8375C186.032 80.3655 186.384 79.9975 186.832 79.7335C187.288 79.4695 187.816 79.3375 188.416 79.3375C189 79.3375 189.508 79.4695 189.94 79.7335C190.372 79.9895 190.708 80.3335 190.948 80.7655C191.188 81.1975 191.308 81.6735 191.308 82.1935C191.308 82.2735 191.304 82.3615 191.296 82.4575C191.296 82.5455 191.292 82.6455 191.284 82.7575H186.652C186.692 83.3335 186.88 83.7735 187.216 84.0775C187.56 84.3735 187.956 84.5215 188.404 84.5215C188.764 84.5215 189.064 84.4415 189.304 84.2815C189.552 84.1135 189.736 83.8895 189.856 83.6095H191.128C190.968 84.1695 190.648 84.6375 190.168 85.0135C189.696 85.3895 189.108 85.5775 188.404 85.5775ZM188.404 80.3815C187.98 80.3815 187.604 80.5095 187.276 80.7655C186.948 81.0135 186.748 81.3895 186.676 81.8935H190.036C190.012 81.4295 189.848 81.0615 189.544 80.7895C189.24 80.5175 188.86 80.3815 188.404 80.3815ZM201.411 85.5775C200.811 85.5775 200.287 85.4735 199.839 85.2655C199.399 85.0495 199.055 84.7495 198.807 84.3655C198.559 83.9815 198.435 83.5335 198.435 83.0215C198.435 82.4615 198.591 81.9615 198.903 81.5215C199.223 81.0815 199.691 80.7295 200.307 80.4655C200.051 80.1775 199.867 79.9055 199.755 79.6495C199.643 79.3935 199.587 79.1135 199.587 78.8095C199.587 78.2575 199.787 77.8015 200.187 77.4415C200.587 77.0735 201.143 76.8895 201.855 76.8895C202.319 76.8895 202.719 76.9775 203.055 77.1535C203.391 77.3295 203.647 77.5655 203.823 77.8615C203.999 78.1575 204.083 78.4935 204.075 78.8695H202.839C202.847 78.5495 202.747 78.3055 202.539 78.1375C202.339 77.9695 202.107 77.8855 201.843 77.8855C201.531 77.8855 201.283 77.9735 201.099 78.1495C200.915 78.3175 200.823 78.5335 200.823 78.7975C200.823 79.0295 200.887 79.2575 201.015 79.4815C201.151 79.7055 201.355 79.9575 201.627 80.2375L204.123 82.7455C204.323 82.4415 204.539 82.0815 204.771 81.6655L205.083 81.0775H206.403L205.923 81.9535C205.595 82.5935 205.271 83.1295 204.951 83.5615L206.823 85.4335H205.263L204.243 84.4135C203.827 84.8215 203.391 85.1175 202.935 85.3015C202.479 85.4855 201.971 85.5775 201.411 85.5775ZM199.671 82.9495C199.671 83.3975 199.831 83.7695 200.151 84.0655C200.479 84.3615 200.907 84.5095 201.435 84.5095C201.827 84.5095 202.183 84.4415 202.503 84.3055C202.823 84.1615 203.135 83.9295 203.439 83.6095L201.051 81.2215C200.587 81.4135 200.239 81.6575 200.007 81.9535C199.783 82.2415 199.671 82.5735 199.671 82.9495ZM213.986 85.4335V77.0335H215.258V85.4335H213.986ZM218.475 85.4335V79.4815H219.603L219.699 80.5255C219.883 80.1575 220.151 79.8695 220.503 79.6615C220.863 79.4455 221.275 79.3375 221.739 79.3375C222.459 79.3375 223.023 79.5615 223.431 80.0095C223.847 80.4575 224.055 81.1255 224.055 82.0135V85.4335H222.795V82.1455C222.795 80.9935 222.323 80.4175 221.379 80.4175C220.907 80.4175 220.515 80.5855 220.203 80.9215C219.899 81.2575 219.747 81.7375 219.747 82.3615V85.4335H218.475ZM229.609 85.4335C229.025 85.4335 228.561 85.2935 228.217 85.0135C227.873 84.7255 227.701 84.2175 227.701 83.4895V80.5495H226.681V79.4815H227.701L227.857 77.9695H228.973V79.4815H230.653V80.5495H228.973V83.4895C228.973 83.8175 229.041 84.0455 229.177 84.1735C229.321 84.2935 229.565 84.3535 229.909 84.3535H230.593V85.4335H229.609ZM236.156 85.5775C235.572 85.5775 235.052 85.4495 234.596 85.1935C234.148 84.9295 233.796 84.5655 233.54 84.1015C233.284 83.6375 233.156 83.0975 233.156 82.4815C233.156 81.8575 233.28 81.3095 233.528 80.8375C233.784 80.3655 234.136 79.9975 234.584 79.7335C235.04 79.4695 235.568 79.3375 236.168 79.3375C236.752 79.3375 237.26 79.4695 237.692 79.7335C238.124 79.9895 238.46 80.3335 238.7 80.7655C238.94 81.1975 239.06 81.6735 239.06 82.1935C239.06 82.2735 239.056 82.3615 239.048 82.4575C239.048 82.5455 239.044 82.6455 239.036 82.7575H234.404C234.444 83.3335 234.632 83.7735 234.968 84.0775C235.312 84.3735 235.708 84.5215 236.156 84.5215C236.516 84.5215 236.816 84.4415 237.056 84.2815C237.304 84.1135 237.488 83.8895 237.608 83.6095H238.88C238.72 84.1695 238.4 84.6375 237.92 85.0135C237.448 85.3895 236.86 85.5775 236.156 85.5775ZM236.156 80.3815C235.732 80.3815 235.356 80.5095 235.028 80.7655C234.7 81.0135 234.5 81.3895 234.428 81.8935H237.788C237.764 81.4295 237.6 81.0615 237.296 80.7895C236.992 80.5175 236.612 80.3815 236.156 80.3815ZM241.94 85.4335V79.4815H243.08L243.188 80.6095C243.396 80.2175 243.684 79.9095 244.052 79.6855C244.428 79.4535 244.88 79.3375 245.408 79.3375V80.6695H245.06C244.708 80.6695 244.392 80.7295 244.112 80.8495C243.84 80.9615 243.62 81.1575 243.452 81.4375C243.292 81.7095 243.212 82.0895 243.212 82.5775V85.4335H241.94ZM248.779 78.3535C248.539 78.3535 248.339 78.2815 248.179 78.1375C248.027 77.9855 247.951 77.7975 247.951 77.5735C247.951 77.3495 248.027 77.1655 248.179 77.0215C248.339 76.8695 248.539 76.7935 248.779 76.7935C249.019 76.7935 249.215 76.8695 249.367 77.0215C249.527 77.1655 249.607 77.3495 249.607 77.5735C249.607 77.7975 249.527 77.9855 249.367 78.1375C249.215 78.2815 249.019 78.3535 248.779 78.3535ZM248.143 85.4335V79.4815H249.415V85.4335H248.143ZM255.438 85.5775C254.87 85.5775 254.358 85.4495 253.902 85.1935C253.454 84.9295 253.098 84.5655 252.834 84.1015C252.57 83.6295 252.438 83.0815 252.438 82.4575C252.438 81.8335 252.57 81.2895 252.834 80.8255C253.106 80.3535 253.47 79.9895 253.926 79.7335C254.382 79.4695 254.89 79.3375 255.45 79.3375C256.018 79.3375 256.526 79.4695 256.974 79.7335C257.43 79.9895 257.79 80.3535 258.054 80.8255C258.326 81.2895 258.462 81.8335 258.462 82.4575C258.462 83.0815 258.326 83.6295 258.054 84.1015C257.79 84.5655 257.43 84.9295 256.974 85.1935C256.518 85.4495 256.006 85.5775 255.438 85.5775ZM255.438 84.4855C255.742 84.4855 256.022 84.4095 256.278 84.2575C256.542 84.1055 256.754 83.8815 256.914 83.5855C257.074 83.2815 257.154 82.9055 257.154 82.4575C257.154 82.0095 257.074 81.6375 256.914 81.3415C256.762 81.0375 256.554 80.8095 256.29 80.6575C256.034 80.5055 255.754 80.4295 255.45 80.4295C255.146 80.4295 254.862 80.5055 254.598 80.6575C254.342 80.8095 254.134 81.0375 253.974 81.3415C253.814 81.6375 253.734 82.0095 253.734 82.4575C253.734 82.9055 253.814 83.2815 253.974 83.5855C254.134 83.8815 254.342 84.1055 254.598 84.2575C254.854 84.4095 255.134 84.4855 255.438 84.4855ZM261.397 85.4335V79.4815H262.537L262.645 80.6095C262.853 80.2175 263.141 79.9095 263.509 79.6855C263.885 79.4535 264.337 79.3375 264.865 79.3375V80.6695H264.517C264.165 80.6695 263.849 80.7295 263.569 80.8495C263.297 80.9615 263.077 81.1575 262.909 81.4375C262.749 81.7095 262.669 82.0895 262.669 82.5775V85.4335H261.397ZM272.147 85.4335V77.0335H274.871C275.855 77.0335 276.663 77.2055 277.295 77.5495C277.935 77.8935 278.407 78.3815 278.711 79.0135C279.023 79.6375 279.179 80.3815 279.179 81.2455C279.179 82.1015 279.023 82.8455 278.711 83.4775C278.407 84.1015 277.935 84.5855 277.295 84.9295C276.663 85.2655 275.855 85.4335 274.871 85.4335H272.147ZM273.419 84.3535H274.823C275.583 84.3535 276.183 84.2295 276.623 83.9815C277.071 83.7335 277.391 83.3775 277.583 82.9135C277.783 82.4495 277.883 81.8935 277.883 81.2455C277.883 80.5975 277.783 80.0375 277.583 79.5655C277.391 79.0935 277.071 78.7335 276.623 78.4855C276.183 78.2295 275.583 78.1015 274.823 78.1015H273.419V84.3535ZM284.881 85.5775C284.297 85.5775 283.777 85.4495 283.321 85.1935C282.873 84.9295 282.521 84.5655 282.265 84.1015C282.009 83.6375 281.881 83.0975 281.881 82.4815C281.881 81.8575 282.005 81.3095 282.253 80.8375C282.509 80.3655 282.861 79.9975 283.309 79.7335C283.765 79.4695 284.293 79.3375 284.893 79.3375C285.477 79.3375 285.985 79.4695 286.417 79.7335C286.849 79.9895 287.185 80.3335 287.425 80.7655C287.665 81.1975 287.785 81.6735 287.785 82.1935C287.785 82.2735 287.781 82.3615 287.773 82.4575C287.773 82.5455 287.769 82.6455 287.761 82.7575H283.129C283.169 83.3335 283.357 83.7735 283.693 84.0775C284.037 84.3735 284.433 84.5215 284.881 84.5215C285.241 84.5215 285.541 84.4415 285.781 84.2815C286.029 84.1135 286.213 83.8895 286.333 83.6095H287.605C287.445 84.1695 287.125 84.6375 286.645 85.0135C286.173 85.3895 285.585 85.5775 284.881 85.5775ZM284.881 80.3815C284.457 80.3815 284.081 80.5095 283.753 80.7655C283.425 81.0135 283.225 81.3895 283.153 81.8935H286.513C286.489 81.4295 286.325 81.0615 286.021 80.7895C285.717 80.5175 285.337 80.3815 284.881 80.3815ZM293.041 85.5775C292.289 85.5775 291.669 85.3935 291.181 85.0255C290.693 84.6575 290.413 84.1695 290.341 83.5615H291.625C291.689 83.8335 291.841 84.0695 292.081 84.2695C292.321 84.4615 292.637 84.5575 293.029 84.5575C293.413 84.5575 293.693 84.4775 293.869 84.3175C294.045 84.1575 294.133 83.9735 294.133 83.7655C294.133 83.4615 294.009 83.2575 293.761 83.1535C293.521 83.0415 293.185 82.9415 292.753 82.8535C292.417 82.7815 292.081 82.6855 291.745 82.5655C291.417 82.4455 291.141 82.2775 290.917 82.0615C290.701 81.8375 290.593 81.5375 290.593 81.1615C290.593 80.6415 290.793 80.2095 291.193 79.8655C291.593 79.5135 292.153 79.3375 292.873 79.3375C293.537 79.3375 294.073 79.4975 294.481 79.8175C294.897 80.1375 295.141 80.5895 295.213 81.1735H293.989C293.949 80.9175 293.829 80.7175 293.629 80.5735C293.437 80.4295 293.177 80.3575 292.849 80.3575C292.529 80.3575 292.281 80.4255 292.105 80.5615C291.929 80.6895 291.841 80.8575 291.841 81.0655C291.841 81.2735 291.961 81.4375 292.201 81.5575C292.449 81.6775 292.773 81.7855 293.173 81.8815C293.573 81.9695 293.941 82.0735 294.277 82.1935C294.621 82.3055 294.897 82.4735 295.105 82.6975C295.313 82.9215 295.417 83.2495 295.417 83.6815C295.425 84.2255 295.213 84.6775 294.781 85.0375C294.357 85.3975 293.777 85.5775 293.041 85.5775ZM299.085 78.3535C298.845 78.3535 298.645 78.2815 298.485 78.1375C298.333 77.9855 298.257 77.7975 298.257 77.5735C298.257 77.3495 298.333 77.1655 298.485 77.0215C298.645 76.8695 298.845 76.7935 299.085 76.7935C299.325 76.7935 299.521 76.8695 299.673 77.0215C299.833 77.1655 299.913 77.3495 299.913 77.5735C299.913 77.7975 299.833 77.9855 299.673 78.1375C299.521 78.2815 299.325 78.3535 299.085 78.3535ZM298.449 85.4335V79.4815H299.721V85.4335H298.449ZM305.397 83.6095C305.085 83.6095 304.797 83.5735 304.533 83.5015L304.017 84.0055C304.105 84.0615 304.213 84.1095 304.341 84.1495C304.469 84.1895 304.649 84.2255 304.881 84.2575C305.113 84.2895 305.429 84.3215 305.829 84.3535C306.621 84.4255 307.193 84.6175 307.545 84.9295C307.897 85.2335 308.073 85.6415 308.073 86.1535C308.073 86.5055 307.977 86.8375 307.785 87.1495C307.601 87.4695 307.309 87.7255 306.909 87.9175C306.517 88.1175 306.013 88.2175 305.397 88.2175C304.565 88.2175 303.889 88.0575 303.369 87.7375C302.857 87.4255 302.601 86.9495 302.601 86.3095C302.601 86.0615 302.665 85.8135 302.793 85.5655C302.929 85.3255 303.141 85.0975 303.429 84.8815C303.261 84.8095 303.113 84.7335 302.985 84.6535C302.865 84.5655 302.757 84.4775 302.661 84.3895V84.1015L303.693 83.0455C303.229 82.6455 302.997 82.1215 302.997 81.4735C302.997 81.0815 303.089 80.7255 303.273 80.4055C303.465 80.0775 303.741 79.8175 304.101 79.6255C304.461 79.4335 304.893 79.3375 305.397 79.3375C305.733 79.3375 306.045 79.3855 306.333 79.4815H308.553V80.3215L307.497 80.3815C307.689 80.7095 307.785 81.0735 307.785 81.4735C307.785 81.8735 307.689 82.2335 307.497 82.5535C307.313 82.8735 307.041 83.1295 306.681 83.3215C306.329 83.5135 305.901 83.6095 305.397 83.6095ZM305.397 82.6135C305.765 82.6135 306.061 82.5175 306.285 82.3255C306.517 82.1255 306.633 81.8455 306.633 81.4855C306.633 81.1175 306.517 80.8375 306.285 80.6455C306.061 80.4535 305.765 80.3575 305.397 80.3575C305.021 80.3575 304.717 80.4535 304.485 80.6455C304.261 80.8375 304.149 81.1175 304.149 81.4855C304.149 81.8455 304.261 82.1255 304.485 82.3255C304.717 82.5175 305.021 82.6135 305.397 82.6135ZM303.801 86.1895C303.801 86.5335 303.953 86.7895 304.257 86.9575C304.561 87.1335 304.941 87.2215 305.397 87.2215C305.837 87.2215 306.193 87.1255 306.465 86.9335C306.737 86.7495 306.873 86.5015 306.873 86.1895C306.873 85.9575 306.781 85.7575 306.597 85.5895C306.413 85.4295 306.065 85.3295 305.553 85.2895C305.169 85.2655 304.829 85.2295 304.533 85.1815C304.253 85.3335 304.061 85.4975 303.957 85.6735C303.853 85.8495 303.801 86.0215 303.801 86.1895ZM311.247 85.4335V79.4815H312.375L312.471 80.5255C312.655 80.1575 312.923 79.8695 313.275 79.6615C313.635 79.4455 314.047 79.3375 314.511 79.3375C315.231 79.3375 315.795 79.5615 316.203 80.0095C316.619 80.4575 316.827 81.1255 316.827 82.0135V85.4335H315.567V82.1455C315.567 80.9935 315.095 80.4175 314.151 80.4175C313.679 80.4175 313.287 80.5855 312.975 80.9215C312.671 81.2575 312.519 81.7375 312.519 82.3615V85.4335H311.247ZM322.669 85.5775C322.085 85.5775 321.565 85.4495 321.109 85.1935C320.661 84.9295 320.309 84.5655 320.053 84.1015C319.797 83.6375 319.669 83.0975 319.669 82.4815C319.669 81.8575 319.793 81.3095 320.041 80.8375C320.297 80.3655 320.649 79.9975 321.097 79.7335C321.553 79.4695 322.081 79.3375 322.681 79.3375C323.265 79.3375 323.773 79.4695 324.205 79.7335C324.637 79.9895 324.973 80.3335 325.213 80.7655C325.453 81.1975 325.573 81.6735 325.573 82.1935C325.573 82.2735 325.569 82.3615 325.561 82.4575C325.561 82.5455 325.557 82.6455 325.549 82.7575H320.917C320.957 83.3335 321.145 83.7735 321.481 84.0775C321.825 84.3735 322.221 84.5215 322.669 84.5215C323.029 84.5215 323.329 84.4415 323.569 84.2815C323.817 84.1135 324.001 83.8895 324.121 83.6095H325.393C325.233 84.1695 324.913 84.6375 324.433 85.0135C323.961 85.3895 323.373 85.5775 322.669 85.5775ZM322.669 80.3815C322.245 80.3815 321.869 80.5095 321.541 80.7655C321.213 81.0135 321.013 81.3895 320.941 81.8935H324.301C324.277 81.4295 324.113 81.0615 323.809 80.7895C323.505 80.5175 323.125 80.3815 322.669 80.3815ZM328.453 85.4335V79.4815H329.593L329.701 80.6095C329.909 80.2175 330.197 79.9095 330.565 79.6855C330.941 79.4535 331.393 79.3375 331.921 79.3375V80.6695H331.573C331.221 80.6695 330.905 80.7295 330.625 80.8495C330.353 80.9615 330.133 81.1575 329.965 81.4375C329.805 81.7095 329.725 82.0895 329.725 82.5775V85.4335H328.453Z" fill="#444444"></path><path d="M102.857 62.5666V61.468L105.812 61.2238L117.359 26.7268H118.458L130.396 61.2238L133.619 61.468V62.5666H120.558V61.468L123.854 61.2238L120.973 52.4592H110.035L107.203 61.2238L110.499 61.468V62.5666H102.857ZM110.475 50.9944L120.436 50.799L115.553 35.8088H115.455L110.475 50.9944ZM135.011 62.5666V61.468L138.771 61.2238V29.0705L135.011 28.8264V27.7278H148.023C149.83 27.7278 151.458 27.8824 152.906 28.1916C154.371 28.5009 155.673 28.9891 156.812 29.6565C157.968 30.3238 158.855 31.2271 159.474 32.3664C160.108 33.4895 160.426 34.8241 160.426 36.3703C160.426 39.1535 159.49 41.3264 157.618 42.8889C155.746 44.4351 153.215 45.4361 150.025 45.8918V45.9406C151.393 45.9569 152.573 46.1766 153.565 46.5998C154.575 47.023 155.372 47.5682 155.958 48.2356C156.56 48.8866 157.13 49.733 157.667 50.7746C158.025 51.4908 158.53 52.5894 159.181 54.0705C159.848 55.5354 160.507 56.8375 161.158 57.9768C161.679 58.9045 162.224 59.6207 162.794 60.1252C163.364 60.6298 163.844 60.939 164.234 61.0529C164.625 61.1669 165.073 61.2238 165.577 61.2238V62.5666H161.524C160.287 62.5666 159.311 62.4934 158.595 62.3469C157.879 62.1841 157.162 61.8098 156.446 61.2238C155.746 60.6379 155.12 59.8322 154.566 58.8069C154.013 57.7652 153.069 55.6005 151.734 52.3127C151.539 51.8244 151.254 51.1978 150.88 50.4328C150.522 49.6516 150.204 49.0656 149.928 48.675C149.667 48.2681 149.35 47.8449 148.976 47.4055C148.618 46.966 148.243 46.6568 147.853 46.4778C147.478 46.2824 147.079 46.1848 146.656 46.1848C145.94 46.1848 145.395 46.1929 145.021 46.2092V61.2238L148.78 61.468V62.5666H135.011ZM145.021 44.8176C145.2 44.8339 145.533 44.842 146.021 44.842C148.919 44.842 150.953 44.1421 152.125 42.7424C153.313 41.3264 153.907 39.2186 153.907 36.4192C153.907 35.0194 153.736 33.8313 153.395 32.8547C153.069 31.8781 152.597 31.1213 151.979 30.5842C151.36 30.0471 150.676 29.6646 149.928 29.4367C149.179 29.2089 148.325 29.0949 147.364 29.0949C146.729 29.0949 145.948 29.16 145.021 29.2903V44.8176ZM165.797 39.6906L166.041 27.7278H192.701L192.945 39.6662H191.603C191.375 38.413 191.171 37.4039 190.992 36.6389C190.829 35.8739 190.626 35.0682 190.382 34.2219C190.138 33.3755 189.885 32.7164 189.625 32.2444C189.365 31.7723 189.047 31.3003 188.673 30.8283C188.299 30.3563 187.867 30.0145 187.379 29.8029C186.907 29.5751 186.354 29.396 185.719 29.2658C185.084 29.1194 184.352 29.0461 183.521 29.0461C183.456 29.0461 183.318 29.0543 183.106 29.0705C182.911 29.0705 182.732 29.0705 182.569 29.0705V61.2238L186.354 61.468V62.5666H172.584V61.468L176.319 61.2238L176.173 29.0949C176.01 29.0949 175.823 29.0949 175.611 29.0949C175.416 29.0787 175.286 29.0705 175.221 29.0705C174.488 29.0705 173.837 29.1112 173.268 29.1926C172.698 29.274 172.177 29.4286 171.705 29.6565C171.249 29.8843 170.851 30.1285 170.509 30.3889C170.167 30.6493 169.85 31.0237 169.557 31.5119C169.264 32.0002 169.011 32.4722 168.8 32.9279C168.604 33.3837 168.393 34.0103 168.165 34.8078C167.953 35.5891 167.612 37.2167 167.14 39.6906H165.797ZM196.192 62.5666V61.468L199.952 61.2238V29.0705L196.192 28.8264V27.7278H209.962V28.8264L206.202 29.0705V61.2238L209.962 61.468V62.5666H196.192ZM210.792 28.8264V27.7278H224.342V28.8264L221.021 29.0705L230.738 53.8264H230.836L239.332 29.0705L236.036 28.8264V27.7278H243.824V28.8264L240.87 29.0705L229.273 63.0549H228.175L214.479 29.0705L210.792 28.8264ZM245.606 62.5666V61.468L249.366 61.2238V29.0705L245.606 28.8264V27.7278H269.654L269.898 37.6643H268.873C268.678 36.5575 268.466 35.6216 268.238 34.8567C268.027 34.0754 267.717 33.2942 267.311 32.5129C266.904 31.7317 266.424 31.1132 265.87 30.6574C265.333 30.1854 264.633 29.8029 263.771 29.51C262.924 29.217 261.939 29.0705 260.816 29.0705C259.433 29.0705 257.7 29.1519 255.616 29.3147V43.8166C256.104 43.8654 256.992 43.8899 258.277 43.8899C259.986 43.8899 261.207 43.4748 261.939 42.6447C262.672 41.7984 263.038 40.2684 263.038 38.0549H264.381V51.1653H263.038C263.038 48.9517 262.664 47.4136 261.915 46.551C261.183 45.6721 259.97 45.2326 258.277 45.2326C257.024 45.2326 256.137 45.257 255.616 45.3059V60.9797C257.7 61.1425 259.767 61.2238 261.817 61.2238C262.778 61.2238 263.624 61.1506 264.356 61.0041C265.089 60.8414 265.724 60.5809 266.261 60.2229C266.798 59.8648 267.254 59.466 267.628 59.0266C268.002 58.5709 268.328 57.9931 268.604 57.2932C268.897 56.5933 269.133 55.8934 269.312 55.1936C269.492 54.4937 269.679 53.6311 269.874 52.6057H270.924L270.655 62.5666H245.606ZM275.147 62.5666V61.468L278.907 61.2238V29.0705L275.147 28.8264V27.7278H288.917V28.8264L285.157 29.0705V60.9797C287.81 61.1587 289.625 61.2483 290.602 61.2483C291.497 61.2483 292.278 61.2238 292.945 61.175C293.629 61.1262 294.247 61.0204 294.801 60.8576C295.37 60.6949 295.842 60.524 296.217 60.3449C296.607 60.1659 296.974 59.8892 297.315 59.5149C297.657 59.1242 297.934 58.7499 298.146 58.3918C298.357 58.0175 298.634 57.3013 298.976 56.2434C299.317 55.1692 299.618 53.9566 299.879 52.6057H300.709V62.5666H275.147ZM303.614 62.5666V61.468L307.374 61.2238V29.0705L303.614 28.8264V27.7278H317.384V28.8264L313.624 29.0705V60.9797C316.277 61.1587 318.092 61.2483 319.068 61.2483C319.964 61.2483 320.745 61.2238 321.412 61.175C322.096 61.1262 322.714 61.0204 323.268 60.8576C323.837 60.6949 324.309 60.524 324.684 60.3449C325.074 60.1659 325.44 59.8892 325.782 59.5149C326.124 59.1242 326.401 58.7499 326.612 58.3918C326.824 58.0175 327.101 57.3013 327.442 56.2434C327.784 55.1692 328.085 53.9566 328.346 52.6057H329.176V62.5666H303.614Z" fill="#1F1F1F"></path></svg>